<svg width="40" height="40" viewBox="0 0 40 40" fill="none" xmlns="http://www.w3.org/2000/svg">
<g clip-path="url(#clip0_3034_23232)">
<path d="M9.0095 20C9.0095 26.1073 13.9488 31.0585 20.0417 31.0585C25.3924 31.0585 29.8379 27.2624 30.8256 22.1454H26.545C25.6398 24.8688 23.0872 26.8502 20.0417 26.8502C16.2549 26.8502 13.126 23.7961 13.126 20C13.126 16.2039 16.2549 13.1507 20.0417 13.1507C23.0872 13.1507 25.6398 15.1312 26.545 17.8546H30.8256C29.8379 12.8201 25.3924 8.9415 20.0417 8.9415C13.9488 8.9415 9.0095 13.8928 9.0095 20ZM20.0417 35.1844C11.6445 35.1844 4.8938 28.4167 4.8938 20C4.8938 11.6649 11.6445 4.8156 20.0417 4.8156C28.3563 4.8156 35.1887 11.6649 35.1887 20C35.1887 28.4167 28.3563 35.1844 20.0417 35.1844ZM20.0417 3C10.656 3 3 10.5922 3 20C3 29.4078 10.656 37 20.0417 37C29.4265 37 37 29.407 37 20C37 10.5922 29.4265 3 20.0417 3Z" fill="#FD9A00"/>
</g>
<defs>
<clipPath id="clip0_3034_23232">
<rect width="40" height="40" rx="20" fill="white"/>
</clipPath>
</defs>
</svg>
