<svg width="233" height="34" viewBox="0 0 233 34" fill="none" xmlns="http://www.w3.org/2000/svg">
<g clip-path="url(#clip0_117_17202)">
<path d="M90.5702 11.1359C89.1039 9.84221 87.1209 9.15286 84.6202 9.15286C82.1195 9.15286 80.2223 9.84306 78.756 11.1359C77.3765 12.5155 76.6863 14.4994 76.6863 16.9992C76.6863 19.5008 77.3765 21.3971 78.756 22.7767C80.2223 24.1562 82.1195 24.8464 84.6202 24.8464H84.7069C87.2076 24.8464 89.1048 24.1562 90.5702 22.7767C91.9506 21.3971 92.6408 19.5008 92.6408 16.9992C92.6399 14.4994 91.9497 12.5155 90.5702 11.1359ZM92.5532 24.6747C90.5702 26.4861 87.9828 27.4338 84.6202 27.4338C81.3434 27.4338 78.756 26.5711 76.773 24.6747C74.7032 22.7775 73.7546 20.2768 73.7546 16.9992C73.7546 13.7233 74.7032 11.1359 76.773 9.23871C78.756 7.34151 81.3434 6.47876 84.6202 6.47876H84.7069C87.9836 6.47876 90.5702 7.42736 92.6408 9.23871C94.6238 11.1359 95.5724 13.7233 95.5724 16.9992C95.5716 20.2768 94.623 22.7775 92.5532 24.6747ZM70.3589 19.2424C70.1005 21.8289 68.9793 23.8995 67.0821 25.3649C65.2708 26.7445 63.0285 27.4347 60.2702 27.4347C56.9926 27.4347 54.3194 26.4869 52.3363 24.6756C50.3533 22.7784 49.4038 20.1918 49.4038 17.0001C49.4038 13.7242 50.3524 11.1368 52.4222 9.23956C54.4052 7.42906 56.9926 6.47961 60.2702 6.47961C62.8559 6.47961 65.0982 7.08311 66.8229 8.37681C68.8068 9.84306 69.9279 11.7403 70.1863 14.2401H67.2538C66.9096 12.5155 66.1335 11.2218 64.7531 10.3599C63.5461 9.49711 62.0799 9.15286 60.2702 9.15286C57.7687 9.15286 55.8715 9.84306 54.4061 11.1359C53.0265 12.5155 52.3363 14.4994 52.3363 16.9992C52.3363 19.4132 53.0265 21.3971 54.4061 22.7767C55.8723 24.1562 57.8554 24.8464 60.2702 24.8464C62.1666 24.8464 63.7187 24.3296 65.0124 23.3802C66.3919 22.4324 67.2538 21.052 67.4264 19.2415H70.3589V19.2424ZM139.53 19.2424C139.271 21.0529 138.496 22.4333 137.115 23.381C135.822 24.3296 134.184 24.8473 132.372 24.8473C129.872 24.8473 127.889 24.1571 126.509 22.7775C125.042 21.398 124.353 19.4141 124.353 17.0001C124.353 14.4994 125.043 12.5163 126.509 11.1368C127.889 9.84306 129.872 9.15371 132.287 9.15371C134.098 9.15371 135.563 9.49881 136.858 10.3607C138.151 11.2226 139.013 12.5163 139.272 14.241H142.203C141.945 11.7411 140.911 9.84306 138.927 8.37766C137.116 7.08396 134.961 6.48046 132.373 6.48046C129.01 6.48046 126.423 7.42906 124.439 9.24041C122.456 11.1376 121.422 13.725 121.422 17.0009C121.422 20.1918 122.369 22.7784 124.353 24.6764C126.423 26.4878 129.01 27.4355 132.287 27.4355C135.046 27.4355 137.289 26.7453 139.1 25.3658C140.996 23.8995 142.118 21.8298 142.463 19.2432L139.53 19.2424ZM98.9673 26.917V6.99641H102.761L115.351 23.9854V6.99641H118.024V26.917H114.23L101.726 9.92891V26.917H98.9673ZM162.674 11.1359C161.208 9.84221 159.31 9.15286 156.811 9.15286C154.31 9.15286 152.326 9.84306 150.946 11.1359C149.481 12.5155 148.791 14.4994 148.791 16.9992C148.791 19.5008 149.481 21.3971 150.946 22.7767C152.326 24.1562 154.31 24.8464 156.811 24.8464C159.31 24.8464 161.294 24.1562 162.674 22.7767C164.053 21.3971 164.744 19.5008 164.744 16.9992C164.743 14.4994 164.053 12.5155 162.674 11.1359ZM164.743 24.6747C162.76 26.4861 160.086 27.4338 156.81 27.4338C153.446 27.4338 150.859 26.5711 148.876 24.6747C146.893 22.7775 145.858 20.2768 145.858 16.9992C145.858 13.7233 146.893 11.1359 148.876 9.23871C150.859 7.34151 153.446 6.47876 156.81 6.47876C160.086 6.47876 162.76 7.42736 164.743 9.23871C166.727 11.1359 167.674 13.7233 167.674 16.9992C167.675 20.2768 166.727 22.7775 164.743 24.6747ZM185.816 12.688C185.816 14.0676 185.213 15.0162 184.006 15.448C183.315 15.7931 182.108 15.8789 180.47 15.8789H179.78H173.83V9.41126H179.78H180.211C181.935 9.41126 183.229 9.49796 183.919 9.84221C185.213 10.2732 185.816 11.2218 185.816 12.688ZM188.663 12.4296C188.663 8.80776 186.247 6.99641 181.592 6.99641H179.781H171.071V26.917H173.831V18.3796H179.781H181.333C182.799 18.3796 183.747 18.638 184.437 19.2424C184.868 19.6733 185.213 20.4494 185.385 21.4838C185.472 22.605 185.472 23.727 185.558 24.8473C185.644 25.8826 185.816 26.5719 185.902 26.9179H189.265C188.748 26.2277 188.403 25.0207 188.403 23.3819C188.316 21.3988 188.231 20.1051 187.972 19.5025C187.627 18.2938 186.679 17.5186 185.213 17.346C187.456 16.655 188.663 15.0162 188.663 12.4296ZM208.012 11.2218C206.805 10.1006 205.08 9.49711 202.666 9.49711H202.32H195.422V24.4155H202.32H202.666C204.994 24.3288 206.805 23.7253 208.012 22.6041C209.219 21.3971 209.823 19.5008 209.823 16.9125C209.823 14.326 209.219 12.4296 208.012 11.2218ZM211.375 22.9501C210.254 24.7606 208.616 25.9676 206.546 26.4861C205.598 26.7445 204.304 26.917 202.666 26.917H201.372H192.662V6.99641H201.371H202.665C204.304 7.08311 205.597 7.16981 206.545 7.42821C208.615 7.94586 210.253 9.15286 211.287 10.9642C212.322 12.6022 212.754 14.5861 212.754 17.0001C212.755 19.3274 212.323 21.3113 211.375 22.9501ZM216.151 26.917V6.99641H232.018V9.49711H218.997V15.4471H231.242V18.0337H218.997V24.2429H232.277V26.917H216.151Z" fill="#45556C"/>
<path d="M6.0095 17C6.0095 23.1073 10.9488 28.0585 17.0417 28.0585C22.3924 28.0585 26.8379 24.2624 27.8256 19.1454H23.545C22.6398 21.8688 20.0872 23.8502 17.0417 23.8502C13.2549 23.8502 10.126 20.7961 10.126 17C10.126 13.2039 13.2549 10.1507 17.0417 10.1507C20.0872 10.1507 22.6398 12.1312 23.545 14.8546H27.8256C26.8379 9.82005 22.3924 5.9415 17.0417 5.9415C10.9488 5.9415 6.0095 10.8928 6.0095 17ZM17.0417 32.1844C8.6445 32.1844 1.8938 25.4167 1.8938 17C1.8938 8.6649 8.6445 1.8156 17.0417 1.8156C25.3563 1.8156 32.1887 8.6649 32.1887 17C32.1887 25.4167 25.3563 32.1844 17.0417 32.1844ZM17.0417 0C7.65595 0 0 7.5922 0 17C0 26.4078 7.65595 34 17.0417 34C26.4265 34 34 26.407 34 17C34 7.5922 26.4265 0 17.0417 0Z" fill="#FD9A00"/>
<path d="M42.596 2.5127H40.8271V31.5725H42.596V2.5127Z" fill="#45556C"/>
</g>
<defs>
<clipPath id="clip0_117_17202">
<rect width="232.276" height="34" fill="white"/>
</clipPath>
</defs>
</svg>
